<svg xmlns="http://www.w3.org/2000/svg" viewBox="0 0 700 420" fill="#000000">
  <!-- Faucet Icon Group -->
  <g transform="translate(350, 50)">
    <!-- Faucet Handle (horizontal bar with knob) -->
    <rect x="-100" y="20" width="200" height="40" rx="20" fill="#000000"/>
    <circle cx="0" cy="40" r="30" fill="#000000"/>
    
    <!-- Faucet Body -->
    <path d="M -60 70 L -60 140 Q -60 170 -30 170 L 60 170 L 60 170 L 90 170 L 90 120 L 120 120 L 120 190 L 90 190 L 90 190 L -30 190 Q -80 190 -80 140 L -80 70 Z" fill="#000000"/>
    
    <!-- Base/Mount -->
    <rect x="-50" y="190" width="100" height="25" fill="#000000"/>
    
    <!-- Water Drop -->
    <ellipse cx="0" cy="245" rx="18" ry="25" fill="#000000"/>
    <path d="M 0 215 Q -18 230 0 270 Q 18 230 0 215 Z" fill="#000000"/>
  </g>
  
  <!-- Company Name Text -->
  <text x="350" y="360" font-family="Arial Black, Helvetica, sans-serif" font-size="80" font-weight="900" text-anchor="middle" fill="#000000" letter-spacing="-2">
    MARFINETZ PLUMBING
  </text>
  
  <!-- CO. Text -->
  <text x="350" y="410" font-family="Arial Black, Helvetica, sans-serif" font-size="55" font-weight="900" text-anchor="middle" fill="#000000" letter-spacing="8">
    CO.
  </text>
</svg>